<?xml version="1.0" encoding="utf-8"?>
<!-- Generator: Adobe Illustrator 24.0.1, SVG Export Plug-In . SVG Version: 6.00 Build 0)  -->
<svg version="1.1" id="Layer_1" xmlns="http://www.w3.org/2000/svg" xmlns:xlink="http://www.w3.org/1999/xlink" x="0px" y="0px"
	 viewBox="0 0 500 165.29" style="enable-background:new 0 0 500 165.29;" xml:space="preserve">
<style type="text/css">
	.st0{fill:#191919;}
	.st1{fill:#FFFFFF;}
	.st2{fill:#008FF9;}
	.st3{fill:#262626;}
</style>
<g>
	<g>
		<g>
			<g>
				<path class="st2" d="M248.55,74.08c-1.05,1.58-2.87,2.6-4.83,2.58l-5.76-0.03v-2.55H178.2l-3.7,8.36l-3.69-8.36h-36.2v-8.72
					h9.11c2.44,0,4.64-0.99,6.25-2.59c1.6-1.6,2.58-3.8,2.58-6.24h-26.91v44.62h18c2.46,0,4.69-1,6.3-2.61
					c1.61-1.61,2.61-3.84,2.61-6.3h-17.94v-9.22h103.38v-2.96l2,2.96h108.6c2.47,0,4.7-1,6.32-2.62c1.62-1.62,2.62-3.85,2.62-6.32
					H248.55z"/>
			</g>
		</g>
		<g>
			<path class="st3" d="M182.08,65.32l-3.88,8.76l-3.7,8.36l-3.69-8.36l-3.91-8.87c-1.17-2.64-3.05-4.81-5.37-6.32
				c-2.32-1.51-5.07-2.36-7.95-2.36l7.98,17.55l4.06,8.94l8.75,19.24h0.33l8.78-19.24l4.08-8.94l8.01-17.55
				C189.73,56.53,184.44,59.98,182.08,65.32z"/>
		</g>
		<g>
			<path class="st3" d="M206.73,83.03h6.45c2.47,0,4.7-1,6.32-2.62c1.62-1.62,2.62-3.85,2.62-6.32h-15.39v-8.72h9.11
				c2.44,0,4.64-0.99,6.24-2.59c1.6-1.6,2.59-3.8,2.59-6.24h-26.91v44.62h17.99c2.46,0,4.69-1,6.3-2.61
				c1.62-1.61,2.61-3.84,2.61-6.3h-17.94V83.03z"/>
		</g>
		<g>
			<path class="st3" d="M250.47,83.41c0.32-0.11,0.64-0.24,0.95-0.39c3.43-1.59,6.05-4.93,6.96-8.94c0.22-1,0.34-2.04,0.34-3.1
				c0-8.03-6.84-14.45-15.17-14.45h-14.56L229,74.08l0,8.94l0.01,18.13h8.97V80.06l2,2.96l12.2,18.13h10.96L250.47,83.41z
				 M237.96,76.63V65.42h5.76c3.02,0,5.76,2.44,5.76,5.62c0,1.13-0.34,2.17-0.92,3.04c-1.05,1.58-2.87,2.6-4.83,2.58L237.96,76.63z"
				/>
		</g>
		<g>
			<path class="st3" d="M274.12,83.03h6.45c2.47,0,4.7-1,6.32-2.62c1.62-1.62,2.62-3.85,2.62-6.32h-15.39v-8.72h9.11
				c2.44,0,4.65-0.99,6.25-2.59c1.6-1.6,2.59-3.8,2.59-6.24h-26.91v44.62h18c2.46,0,4.69-1,6.3-2.61c1.61-1.61,2.61-3.84,2.61-6.3
				h-17.94V83.03z"/>
		</g>
		<g>
			<path class="st3" d="M324.59,83.03c-1.88-3.53-5.65-6.04-10.69-8.41c-0.39-0.19-0.77-0.36-1.14-0.53c-4.47-2.03-7.35-3-7.35-5.45
				c0-2.3,2.49-4.23,5.84-4.23c1.25,0,2.51,0.27,3.63,0.87c1.12,0.6,2.1,1.54,2.76,2.87c4.73-3.31,3.42-10.74-2.19-12.06
				c-1.36-0.32-2.82-0.48-4.34-0.48c-8.19,0-14.73,5.1-14.73,12.82c0,2.3,0.58,4.15,1.53,5.68c1.98,3.19,5.6,4.99,8.99,6.67
				c1.46,0.73,2.99,1.48,4.4,2.27c3.1,1.73,5.62,3.65,5.62,5.89c0,2.38-2.82,4.1-7.03,4.1c-3.85,0-6.7-1.44-8.66-4.6
				c-4.79,3.36-3.73,10.76,1.83,12.61c2.01,0.67,4.25,1.01,6.7,1.01c9.55,0,16.2-5.18,16.2-13.32
				C325.94,86.54,325.47,84.67,324.59,83.03z"/>
		</g>
		<g>
			<path class="st3" d="M348.45,56.53h-22.07c0,4.91,3.98,8.89,8.89,8.89h2.1v35.74c4.97,0,9-4.03,9-8.99V76.38
				c0-6.05,4.91-10.96,10.96-10.96h0C357.34,60.51,353.36,56.53,348.45,56.53z"/>
		</g>
	</g>
	<g>
		<path class="st3" d="M153.96,107.78c2.42,0,3.89,1.43,3.89,3.53c0,2.13-1.47,3.54-3.89,3.54h-2.76v3.44h-2.13v-10.51H153.96z
			 M153.96,112.92c1.15,0,1.77-0.64,1.77-1.62c0-0.94-0.63-1.6-1.77-1.6h-2.76v3.22H153.96z"/>
		<path class="st2" d="M169.3,115.75l-0.62,2.53h-9.52l0.56-1.81l5.62-4.61c0.95-0.78,2.51-1.85,2.51-3.46
			c0-1.05-0.68-1.81-1.9-1.81s-2.1,0.78-2.39,2.53l-2.62-0.54c0.39-2.72,2.49-4.41,5.21-4.41c2.62,0,4.33,1.57,4.33,4.02
			c0,1.96-1.07,3.44-3.6,5.48l-2.55,2.08H169.3z"/>
		<path class="st3" d="M180.8,118.29h-7.98v-10.51h7.95v1.93h-5.82v2.37h5.36v1.9h-5.36v2.38h5.85V118.29z"/>
		<path class="st3" d="M199.17,112.16c0.03,0.36,0.05,0.66,0.05,0.91c0,3.12-2.23,5.46-5.33,5.46c-3.14,0-5.58-2.4-5.58-5.49
			c0-3.07,2.43-5.49,5.52-5.49c2.21,0,4.3,1.04,5.05,3.17l-1.91,0.67c-0.77-1.47-1.99-1.84-3.14-1.84c-1.88,0-3.36,1.51-3.36,3.48
			c0,1.99,1.52,3.5,3.48,3.5c1.6,0,2.79-0.94,3.15-2.43h-3.69v-1.94H199.17z"/>
		<path class="st3" d="M209.42,118.29l-0.91-2.24h-4.64l-0.93,2.24h-2.31l4.55-10.51h1.99l4.55,10.51H209.42z M206.19,110.37
			l-1.54,3.75h3.06L206.19,110.37z"/>
		<path class="st3" d="M225.63,118.29h-2.07v-6.04l-3.29,6.04h-0.96l-3.31-6.04v6.04h-2.07v-10.51h1.87l3.98,7.26l4-7.26h1.85
			V118.29z"/>
		<path class="st3" d="M228.92,118.29v-10.51h2.13v10.51H228.92z"/>
		<path class="st3" d="M244.09,118.29h-1.79l-5.82-6.75v6.75h-2.13v-10.51h1.79l5.82,6.93v-6.93h2.13V118.29z"/>
		<path class="st3" d="M257.79,112.16c0.03,0.36,0.05,0.66,0.05,0.91c0,3.12-2.23,5.46-5.33,5.46c-3.14,0-5.58-2.4-5.58-5.49
			c0-3.07,2.43-5.49,5.52-5.49c2.21,0,4.3,1.04,5.05,3.17l-1.91,0.67c-0.77-1.47-1.99-1.84-3.14-1.84c-1.88,0-3.36,1.51-3.36,3.48
			c0,1.99,1.52,3.5,3.48,3.5c1.6,0,2.79-0.94,3.15-2.43h-3.69v-1.94H257.79z"/>
		<path class="st3" d="M273.73,113.9l2.07,0.42c-0.52,2.7-2.65,4.2-5.18,4.2c-3.09,0-5.52-2.4-5.52-5.49c0-3.07,2.43-5.49,5.52-5.49
			c2.53,0,4.64,1.52,5.18,4.05l-2.07,0.58c-0.39-1.82-1.65-2.62-3.11-2.62c-1.88,0-3.37,1.49-3.37,3.48s1.49,3.5,3.37,3.5
			C272.09,116.53,273.34,115.73,273.73,113.9z"/>
		<path class="st3" d="M286.62,118.29h-7.98v-10.51h7.95v1.93h-5.82v2.37h5.36v1.9h-5.36v2.38h5.85V118.29z"/>
		<path class="st3" d="M299.42,118.29h-1.79l-5.82-6.75v6.75h-2.13v-10.51h1.79l5.82,6.93v-6.93h2.13V118.29z"/>
		<path class="st3" d="M307.56,109.71v8.58h-2.13v-8.58h-3.5v-1.93h9.13v1.93H307.56z"/>
		<path class="st3" d="M320.29,118.29l-3.47-3.86h-1.11v3.86h-2.13v-10.51h5.04c2.26,0,3.76,1.33,3.76,3.33
			c0,1.76-1.18,3.01-3.01,3.28l3.53,3.91H320.29z M318.61,112.5c0.99,0,1.65-0.56,1.65-1.4c0-0.83-0.66-1.4-1.65-1.4h-2.9v2.79
			H318.61z"/>
		<path class="st3" d="M333.23,118.29h-7.98v-10.51h7.95v1.93h-5.82v2.37h5.36v1.9h-5.36v2.38h5.85V118.29z"/>
	</g>
	<g>
		<path class="st2" d="M361.94,44.19v5.06c0,0.92-0.75,1.67-1.67,1.67l0,0v-6.73h-2.75l0,0c0-0.84,0.68-1.51,1.51-1.51h5.65v0
			c0,0.84-0.68,1.51-1.51,1.51H361.94z"/>
		<path class="st2" d="M374.36,50.93L374.36,50.93c-0.9,0-1.62-0.73-1.62-1.62v-3.11l-2.41,4.41c-0.11,0.2-0.32,0.33-0.56,0.33l0,0
			c-0.23,0-0.44-0.13-0.56-0.33l-2.42-4.41v3.11c0,0.9-0.73,1.62-1.62,1.62l0,0v-8.25h0.01c0.9,0,1.72,0.49,2.16,1.28l2.43,4.42
			l2.44-4.43c0.43-0.78,1.26-1.27,2.15-1.27l0,0V50.93z"/>
	</g>
</g>
</svg>
