<?xml version="1.0" standalone="no"?>
<!DOCTYPE svg PUBLIC "-//W3C//DTD SVG 20010904//EN"
 "http://www.w3.org/TR/2001/REC-SVG-20010904/DTD/svg10.dtd">
<svg version="1.0" xmlns="http://www.w3.org/2000/svg"
 width="4001.000000pt" height="4001.000000pt" viewBox="0 0 4001.000000 4001.000000"
 preserveAspectRatio="xMidYMid meet">

<g transform="translate(0.000000,4001.000000) scale(0.100000,-0.100000)"
fill="#000000" stroke="none">
<path d="M0 20010 l0 -20000 19998 0 19999 0 6 3512 c9 4558 9 30555 0 33906
l-6 2582 -19999 0 -19998 0 0 -20000z m20595 13900 c2003 -92 3897 -585 5650
-1470 1220 -617 2354 -1416 3315 -2337 47 -45 109 -103 139 -130 72 -64 454
-463 617 -643 1285 -1423 2267 -3104 2870 -4915 747 -2245 908 -4672 464
-7006 -28 -145 -58 -289 -66 -319 -9 -30 -17 -66 -18 -80 -5 -47 -77 -348
-156 -645 -117 -441 -318 -1046 -500 -1500 -172 -430 -302 -718 -510 -1130
-1135 -2249 -2861 -4148 -4995 -5497 -721 -455 -1535 -868 -2310 -1173 -1370
-538 -2747 -843 -4255 -941 -311 -20 -1086 -29 -1360 -16 -118 6 -269 13 -335
17 -419 19 -1060 94 -1562 180 -3972 685 -7459 3086 -9550 6575 -255 425 -570
1031 -767 1475 -1033 2329 -1406 4905 -1080 7455 342 2673 1461 5189 3222
7245 453 529 1004 1079 1527 1526 1345 1148 2909 2040 4549 2595 1202 406
2324 629 3625 720 337 23 1116 31 1486 14z"/>
<path d="M19350 33699 c-539 -25 -1121 -87 -1650 -175 -118 -20 -226 -37 -240
-39 -14 -1 -32 -5 -40 -8 -20 -8 -329 -69 -361 -71 -14 -2 -30 -5 -35 -8 -5
-3 -22 -8 -37 -12 -22 -5 -27 -4 -21 6 4 8 0 7 -12 -3 -10 -8 -64 -25 -119
-38 -55 -13 -185 -45 -290 -73 -104 -27 -199 -51 -210 -52 -11 -2 -27 -6 -35
-10 -36 -15 -154 -45 -161 -41 -4 3 -9 1 -11 -4 -1 -6 -14 -11 -28 -13 -14 -2
-29 -6 -35 -10 -5 -3 -73 -25 -150 -48 -719 -218 -1572 -570 -2260 -933 -1747
-920 -3213 -2137 -4439 -3685 -755 -954 -1415 -2077 -1889 -3217 -543 -1305
-888 -2727 -1002 -4135 -41 -516 -55 -1146 -35 -1620 7 -162 14 -338 16 -391
2 -53 6 -103 8 -110 3 -8 7 -54 10 -104 23 -406 122 -1102 237 -1665 716
-3499 2808 -6608 5799 -8615 1724 -1157 3684 -1905 5735 -2189 259 -36 663
-80 825 -90 36 -2 155 -10 265 -18 267 -17 1339 -18 1595 0 275 19 513 40 720
63 2909 321 5647 1576 7800 3576 218 203 617 603 791 793 1419 1553 2454 3383
3040 5375 39 132 73 247 76 255 3 8 7 26 9 39 2 13 6 31 10 40 4 9 8 22 10 30
12 61 28 118 35 127 5 6 7 13 4 15 -2 3 1 23 7 45 6 21 13 42 14 47 1 4 2 8 3
10 1 1 4 17 7 36 2 19 9 39 14 46 5 7 8 14 5 17 -7 6 34 180 46 194 4 5 5 21
2 34 -5 17 -3 21 6 15 10 -5 11 -2 7 13 -4 12 -2 38 4 59 6 21 13 52 16 68 8
48 13 57 26 49 10 -6 9 -3 0 9 -11 13 -11 27 -2 74 6 32 14 65 17 73 3 8 6 18
5 21 -1 4 12 80 28 170 115 657 177 1290 201 2034 11 372 5 701 -22 1170 -169
2969 -1325 5832 -3269 8095 -454 528 -1037 1107 -1559 1550 -1883 1594 -4160
2650 -6586 3054 -513 86 -1021 141 -1580 170 -279 15 -1046 18 -1315 5z m3186
-760 c223 -41 380 -259 345 -480 -46 -281 -348 -443 -606 -325 -109 50 -207
170 -234 287 -36 156 25 330 151 430 68 53 98 68 172 84 78 17 99 17 172 4z
m-4928 -14 c28 -9 79 -34 114 -58 239 -161 251 -502 25 -684 -46 -37 -125 -76
-137 -68 -5 3 -10 0 -12 -7 -3 -7 -37 -13 -95 -16 -74 -4 -103 0 -156 17 -113
38 -203 119 -256 231 -23 49 -26 67 -26 170 0 108 2 119 32 182 74 156 215
247 384 248 41 0 98 -7 127 -15z m1480 -1250 l60 -104 -41 -5 c-23 -3 -123
-13 -222 -21 -1064 -93 -2252 -383 -3268 -799 -73 -29 -159 -64 -192 -77 -33
-12 -97 -40 -143 -61 -46 -21 -85 -38 -87 -38 -7 0 -289 -135 -430 -207 -463
-233 -961 -531 -1347 -806 -71 -49 -128 -94 -128 -99 0 -5 -4 -7 -9 -3 -5 3
-12 1 -16 -4 -3 -5 3 -14 12 -20 17 -10 17 -10 1 -11 -10 0 -18 -4 -18 -9 0
-4 -60 -53 -132 -108 -197 -149 -377 -293 -523 -418 -200 -172 -231 -203 -219
-215 24 -24 -22 -238 -77 -360 -12 -25 -26 -56 -32 -70 -24 -54 -118 -208
-164 -270 -66 -89 -86 -121 -98 -152 -13 -33 -93 -126 -215 -246 -116 -115
-124 -122 -139 -122 -6 0 -51 -33 -99 -72 -125 -103 -140 -114 -270 -197 -121
-76 -332 -181 -367 -181 -11 0 -27 -4 -35 -10 -9 -5 -19 -5 -27 2 -10 8 -12 7
-7 -6 8 -20 -5 -21 -33 -1 -16 11 -24 12 -29 4 -4 -8 -3 -9 4 -5 7 4 12 2 12
-3 0 -6 -6 -11 -12 -11 -17 0 -64 -56 -187 -224 -250 -341 -553 -822 -770
-1218 -181 -331 -469 -935 -453 -950 4 -3 79 -36 167 -73 532 -223 4016 -1714
4030 -1725 6 -4 33 -15 62 -25 29 -10 50 -22 47 -27 -3 -4 3 -5 12 -1 13 5 15
3 9 -7 -5 -8 -4 -11 3 -6 15 9 93 -24 85 -37 -3 -6 -1 -7 6 -3 16 10 53 -3 45
-16 -4 -6 -3 -8 3 -5 12 7 106 -27 98 -35 -4 -3 -1 -9 6 -14 8 -4 10 -3 5 4
-11 18 -13 19 152 -55 20 -9 30 -19 26 -26 -5 -9 -4 -9 5 -1 11 10 105 -25
306 -115 11 -5 41 -17 67 -27 39 -16 45 -21 35 -34 -10 -13 -10 -13 4 -2 14
10 37 3 145 -44 71 -31 149 -64 174 -74 25 -9 227 -95 450 -190 223 -94 524
-223 670 -285 241 -103 681 -290 1910 -812 239 -102 608 -259 820 -350 212
-91 390 -167 396 -170 6 -2 28 26 49 62 80 136 206 261 338 335 31 17 57 34
57 36 0 3 -103 247 -229 542 -126 295 -333 782 -461 1082 -128 300 -341 802
-475 1115 -134 314 -327 768 -430 1010 -103 242 -303 712 -445 1045 -142 333
-356 835 -475 1115 -365 857 -706 1657 -735 1725 -15 36 -111 261 -213 500
-102 239 -264 621 -361 848 -97 227 -176 417 -176 422 0 5 10 12 23 15 12 4
128 49 257 100 346 137 581 218 1025 354 94 28 500 134 555 144 14 3 52 12 85
20 65 17 280 63 360 77 413 72 688 113 938 140 160 17 458 40 519 40 56 0 56
0 81 -42 13 -24 50 -87 81 -141 31 -53 54 -102 51 -107 -4 -6 -2 -9 4 -8 8 3
168 -265 372 -624 28 -48 54 -90 58 -93 7 -4 325 534 552 934 l48 85 53 -2
c301 -13 850 -74 1212 -137 455 -78 987 -201 1321 -305 33 -10 128 -40 210
-66 152 -47 410 -136 520 -179 33 -13 114 -44 180 -70 66 -26 134 -52 150 -60
17 -7 51 -21 77 -31 27 -11 48 -23 48 -29 0 -22 32 40 95 185 36 85 72 167 79
182 13 26 13 26 -53 56 -290 133 -877 340 -1291 458 -107 30 -217 61 -245 69
-45 13 -118 31 -385 94 -383 90 -915 175 -1390 221 -118 11 -243 24 -277 28
l-62 7 58 100 57 100 70 -3 c106 -4 425 -40 657 -73 214 -31 530 -85 557 -95
8 -4 29 -8 46 -10 34 -3 333 -66 429 -90 33 -9 87 -22 120 -29 112 -26 340
-88 520 -140 525 -154 1167 -396 1638 -619 53 -25 139 -66 190 -90 129 -61
452 -231 642 -339 1300 -736 2460 -1724 3400 -2897 619 -772 1132 -1610 1544
-2519 468 -1031 792 -2168 936 -3281 14 -107 27 -210 29 -227 3 -21 0 -33 -7
-33 -9 0 -9 -2 0 -8 13 -8 26 -116 48 -377 51 -631 45 -1474 -15 -2075 -115
-1154 -375 -2221 -792 -3258 -287 -714 -617 -1352 -1053 -2037 -59 -93 -108
-176 -109 -185 -1 -9 7 -15 19 -14 12 1 21 -5 22 -15 0 -9 6 -41 12 -71 28
-133 -30 -321 -172 -560 -28 -47 -59 -96 -69 -110 -238 -322 -544 -611 -819
-775 -74 -44 -242 -122 -279 -130 -19 -4 -41 -12 -49 -19 -12 -9 -13 -8 -6 4
8 13 7 13 -8 1 -9 -7 -17 -11 -17 -7 0 4 -12 -2 -27 -11 -21 -14 -25 -15 -19
-3 5 8 -40 -33 -100 -91 -2018 -1965 -4587 -3136 -7359 -3353 -626 -49 -1289
-46 -1950 9 -1637 137 -3263 631 -4695 1425 -1490 826 -2780 1957 -3786 3320
-786 1065 -1387 2251 -1774 3500 -84 269 -197 685 -204 745 -1 12 -5 25 -8 30
-5 9 -10 29 -22 95 -3 14 -14 61 -24 105 -18 70 -30 135 -37 185 -1 8 -5 22
-8 30 -3 8 -9 33 -13 55 -3 22 -8 49 -10 60 -203 1071 -259 2147 -168 3230
180 2160 968 4250 2266 6012 51 69 91 131 89 137 -15 43 10 240 37 293 5 10
20 43 33 73 189 440 709 967 1159 1173 41 19 102 43 135 53 33 10 64 21 69 26
6 4 19 0 30 -10 11 -9 16 -12 13 -6 -7 13 16 38 26 28 3 -4 79 56 169 133
1755 1503 3807 2441 6045 2762 174 25 311 42 623 74 19 2 54 5 77 5 l41 2 60
-105z m8047 -636 c277 -51 428 -352 304 -606 -92 -191 -331 -287 -524 -213
-16 6 -30 10 -30 8 0 -9 -86 51 -123 86 -89 85 -132 186 -132 310 1 200 149
376 350 415 64 12 88 12 155 0z m-14072 -42 c80 -36 170 -125 210 -206 30 -63
32 -72 32 -181 0 -109 -2 -119 -32 -182 -44 -94 -109 -160 -202 -206 -73 -36
-78 -37 -186 -37 -108 0 -113 1 -187 38 -260 128 -318 478 -113 683 93 93 178
125 320 121 82 -3 110 -8 158 -30z m17616 -3478 c164 -38 294 -179 323 -351
30 -182 -72 -367 -249 -451 -63 -30 -76 -32 -174 -32 -101 0 -108 1 -180 37
-233 115 -317 389 -186 607 36 59 102 123 160 152 86 44 212 60 306 38z
m-21146 -38 c78 -34 136 -79 183 -143 131 -178 106 -425 -58 -573 -186 -168
-483 -138 -626 63 -67 95 -76 125 -77 257 0 108 3 125 26 175 50 106 146 190
264 233 69 24 219 18 288 -12z m4485 -589 c20 -21 48 -51 61 -65 l25 -27 -58
-55 -57 -55 21 -28 c98 -128 187 -309 164 -332 -8 -7 -208 -90 -218 -90 -3 0
-12 24 -21 53 -30 91 -88 190 -152 258 -99 104 -178 126 -211 56 -12 -24 -10
-34 12 -82 13 -30 52 -98 85 -152 87 -142 113 -205 119 -283 4 -58 1 -76 -21
-121 -49 -105 -150 -176 -267 -186 -74 -7 -173 22 -249 72 l-54 36 -61 -60
-62 -61 -62 63 c-34 34 -62 67 -62 73 0 5 24 34 54 63 l54 53 -52 77 c-56 82
-101 182 -93 204 5 12 192 97 214 97 5 0 18 -26 28 -57 35 -102 135 -232 208
-269 67 -35 147 7 131 70 -4 15 -43 87 -87 159 -118 195 -130 225 -131 327 -1
98 11 127 77 194 78 78 192 111 298 86 30 -7 87 -30 128 -52 l75 -39 55 55
c31 31 59 56 63 56 5 0 25 -17 46 -38z m514 -784 c98 -49 177 -128 226 -227
36 -74 37 -77 36 -191 0 -96 -4 -124 -23 -170 -71 -171 -254 -351 -420 -414
-44 -16 -79 -21 -166 -21 -103 0 -114 2 -178 32 -96 46 -187 136 -235 232 -36
73 -37 78 -37 185 1 91 5 121 24 169 55 139 206 309 334 378 105 56 160 69
268 66 88 -2 103 -6 171 -39z m699 -728 c131 -40 262 -172 303 -303 25 -79 23
-193 -3 -278 -41 -130 -171 -291 -305 -379 -213 -138 -461 -114 -622 61 -174
190 -164 441 25 667 177 209 399 295 602 232z m696 -701 c155 -58 305 -202
380 -365 22 -50 27 -73 27 -149 1 -74 -3 -97 -21 -131 -33 -61 -70 -101 -122
-132 -40 -24 -56 -27 -132 -27 l-87 0 -4 -60 c-12 -138 -109 -237 -247 -251
-164 -18 -382 130 -478 324 -47 94 -57 203 -26 273 46 103 140 169 241 169
l53 0 -6 54 c-15 117 45 227 154 283 54 29 73 33 136 33 51 0 92 -7 132 -21z
m16651 -1754 c176 -42 291 -160 328 -338 38 -180 -55 -371 -219 -452 -163 -80
-339 -62 -472 48 -47 38 -97 106 -88 120 3 5 1 7 -4 4 -17 -10 -54 101 -60
178 -16 207 118 390 322 441 68 17 118 16 193 -1z m-24982 -31 c66 -19 163
-83 202 -132 127 -161 132 -389 12 -541 -48 -61 -89 -92 -165 -128 -54 -25
-71 -28 -170 -28 -104 0 -114 2 -177 33 -97 48 -161 109 -205 199 -32 65 -37
86 -41 162 -7 136 25 227 112 320 52 55 99 85 173 110 71 25 184 27 259 5z
m25068 -4968 c228 -112 319 -375 205 -598 -33 -65 -120 -145 -196 -181 -64
-30 -75 -32 -179 -32 -107 0 -112 1 -185 37 -145 72 -230 200 -237 360 -7 148
46 273 153 358 89 71 154 91 280 88 86 -3 108 -7 159 -32z m-25038 -17 c79
-30 157 -91 203 -160 23 -34 41 -72 41 -85 0 -13 4 -24 9 -24 9 0 20 -49 26
-121 4 -53 -14 -138 -43 -199 -30 -64 -120 -158 -180 -189 -71 -36 -242 -67
-242 -43 0 4 -19 7 -43 8 -55 2 -156 52 -218 111 -94 88 -144 239 -122 367 22
131 105 251 213 310 104 56 244 66 356 25z m22190 -4511 c4 -7 3 -8 -4 -4 -7
4 -12 2 -12 -5 0 -7 -3 -10 -6 -6 -6 5 3 27 11 27 2 0 7 -5 11 -12z m856 -39
c246 -52 395 -292 333 -534 -32 -123 -115 -222 -234 -278 -126 -60 -301 -46
-415 33 -272 186 -245 604 48 741 99 46 176 57 268 38z m-21177 -35 c33 -8 78
-26 101 -39 55 -32 115 -86 108 -97 -3 -5 0 -7 7 -6 20 4 88 -139 99 -207 20
-126 -22 -257 -114 -353 -83 -87 -188 -132 -311 -132 -248 0 -440 205 -423
452 19 271 270 451 533 382z m17706 -3500 c224 -66 352 -307 285 -537 -37
-126 -150 -241 -279 -281 -92 -29 -222 -20 -310 21 -211 99 -302 353 -204 566
25 55 98 142 150 179 88 63 244 86 358 52z m-14231 -5 c36 -5 97 -26 136 -44
203 -97 288 -349 190 -557 -29 -60 -91 -138 -111 -138 -7 0 -15 -6 -18 -14 -9
-23 -127 -75 -196 -87 -131 -23 -275 26 -370 126 -162 171 -158 429 8 596 64
63 121 94 213 114 80 17 71 17 148 4z m4687 -1919 c102 -35 180 -106 233 -209
129 -256 -31 -562 -320 -613 -207 -36 -420 105 -476 316 -35 131 2 287 93 387
119 131 301 177 470 119z m5005 -7 c165 -77 258 -234 245 -415 -10 -155 -106
-295 -245 -361 -63 -30 -74 -32 -177 -32 -103 0 -114 2 -177 32 -168 79 -255
225 -246 412 5 98 34 174 93 247 35 42 130 111 147 107 4 -2 8 1 8 5 0 5 19
15 43 22 23 7 47 14 52 16 6 2 51 2 100 1 77 -2 100 -7 157 -34z"/>
<path d="M22710 31485 c0 -2 6 -8 13 -14 10 -8 14 -7 14 2 0 8 -6 14 -14 14
-7 0 -13 -1 -13 -2z"/>
<path d="M24650 30610 c8 -5 20 -10 25 -10 6 0 3 5 -5 10 -8 5 -19 10 -25 10
-5 0 -3 -5 5 -10z"/>
<path d="M24542 30593 c-9 -17 -76 -176 -170 -403 -22 -52 -254 -599 -517
-1215 -516 -1212 -855 -2008 -1080 -2535 -79 -184 -254 -596 -390 -915 -383
-898 -538 -1263 -865 -2030 -352 -828 -795 -1867 -986 -2314 -74 -172 -134
-318 -134 -325 0 -6 21 -22 46 -36 121 -64 262 -199 339 -325 24 -38 47 -69
52 -68 4 1 240 100 523 221 283 121 925 394 1425 607 501 213 1061 451 1245
530 184 79 486 207 670 285 184 78 668 284 1075 457 407 173 841 358 965 410
124 53 254 108 290 123 260 111 311 131 319 125 5 -3 13 1 18 9 4 7 55 34 113
58 58 25 494 212 970 416 1020 437 1789 765 1987 848 79 32 143 64 143 70 0
32 -276 610 -425 889 -330 619 -813 1341 -1249 1865 -39 47 -61 78 -51 70 13
-9 16 -9 8 -1 -6 7 -9 21 -6 30 4 14 3 14 -6 1 -8 -12 -14 -11 -35 9 -23 22
-26 58 -3 44 6 -4 7 -1 2 6 -5 9 -11 9 -17 3 -7 -7 -17 -4 -31 9 -17 16 -19
21 -7 32 7 7 10 7 7 1 -10 -17 19 -39 29 -23 4 7 3 9 -3 6 -6 -4 -13 2 -16 13
-3 12 -12 19 -24 18 -10 -2 -20 2 -21 7 -2 6 -8 19 -14 30 -9 19 -9 19 6 1 9
-10 13 -23 10 -27 -3 -5 -1 -9 5 -9 21 0 18 17 -10 48 -16 18 -29 29 -29 26 0
-4 -13 11 -28 32 -24 32 -187 219 -235 269 -383 397 -757 753 -1012 964 -712
590 -1429 1059 -2233 1460 -162 81 -204 98 -208 86 -5 -11 -10 -13 -19 -5 -6
5 -15 6 -20 2 -4 -4 -3 2 3 14 10 18 6 23 -45 48 -30 15 -57 25 -60 22 -2 -2
5 -7 16 -11 12 -3 21 -11 21 -16 0 -5 3 -8 8 -7 4 1 17 -1 30 -6 23 -8 29 -21
13 -30 -9 -6 -72 22 -82 37 -3 5 -9 8 -13 8 -3 -1 -14 -1 -23 -1 -17 1 -17 1
0 14 9 7 17 17 17 21 0 4 -7 2 -15 -5 -8 -6 -20 -8 -26 -4 -7 4 -9 3 -5 -4 3
-6 -43 12 -104 39 -60 27 -114 49 -120 49 -5 0 -13 -8 -18 -17z m483 -173 c3
-6 -1 -7 -9 -4 -18 7 -21 14 -7 14 6 0 13 -4 16 -10z m1270 -3411 c25 -61 45
-112 43 -114 -2 -2 -32 -15 -68 -29 -194 -79 -324 -242 -250 -316 39 -39 68
-29 235 75 135 84 189 110 258 125 101 21 180 -4 253 -82 88 -91 113 -201 76
-324 -12 -38 -35 -91 -52 -118 l-31 -49 60 -61 61 -62 -63 -62 c-34 -34 -66
-62 -71 -62 -5 0 -33 25 -63 55 l-54 54 -59 -48 c-63 -50 -199 -123 -262 -139
l-37 -10 -42 106 c-23 59 -43 112 -46 118 -2 7 10 14 30 18 57 11 189 80 253
134 71 58 124 133 124 174 0 35 -32 68 -65 68 -31 0 -118 -43 -215 -105 -38
-26 -104 -62 -146 -82 -140 -66 -261 -48 -356 55 -60 65 -82 123 -83 212 0 92
13 137 64 220 l39 65 -59 60 -59 61 68 67 68 67 54 -55 c30 -30 58 -55 63 -55
4 0 32 18 60 40 50 37 189 109 213 110 7 0 33 -50 59 -111z m-690 -735 c211
-54 436 -291 481 -506 37 -175 -35 -353 -188 -461 -94 -66 -145 -82 -263 -82
-111 1 -174 18 -274 77 -74 44 -209 179 -254 255 -102 168 -113 348 -30 491
60 103 193 208 296 232 55 14 170 11 232 -6z m-774 -748 c113 -24 217 -85 321
-189 143 -142 206 -287 195 -450 -14 -200 -181 -383 -386 -418 -186 -33 -425
87 -567 287 -165 231 -157 465 23 643 124 121 253 161 414 127z m-729 -710
c103 -31 189 -123 222 -238 14 -45 16 -95 14 -267 -2 -116 0 -211 4 -211 3 0
66 63 138 140 73 77 138 140 144 140 6 0 48 -37 93 -82 l82 -83 -293 -300
-292 -299 -73 64 -73 65 6 145 c13 292 12 503 -2 542 -18 50 -74 98 -114 98
-86 0 -168 -107 -168 -219 l0 -46 -124 -36 -124 -36 -6 30 c-29 143 24 301
144 430 135 146 286 204 422 163z"/>
<path d="M25395 26009 c-51 -14 -87 -61 -93 -118 -7 -75 31 -144 137 -251 127
-128 227 -168 310 -126 96 50 92 164 -11 294 -111 142 -256 227 -343 201z"/>
<path d="M24634 25250 c-28 -11 -72 -65 -81 -98 -8 -35 12 -108 44 -157 14
-22 61 -75 103 -117 124 -125 237 -165 315 -114 14 9 32 31 41 48 42 81 3 178
-121 302 -120 120 -224 167 -301 136z"/>
<path d="M24740 30570 c8 -5 20 -10 25 -10 6 0 3 5 -5 10 -8 5 -19 10 -25 10
-5 0 -3 -5 5 -10z"/>
<path d="M20040 29511 c-128 -42 -179 -121 -244 -381 -49 -194 -62 -220 -109
-220 -110 0 -127 233 -31 421 l23 47 -109 46 c-60 25 -116 46 -124 46 -20 0
-63 -113 -84 -220 l-17 -90 -82 0 -83 0 0 -95 0 -95 84 0 85 0 11 -57 c27
-133 106 -242 210 -292 75 -35 193 -36 260 -1 101 51 147 133 203 356 19 77
42 157 51 177 19 46 55 65 92 49 81 -37 72 -288 -17 -464 -17 -33 -29 -61 -27
-63 11 -9 214 -95 224 -95 30 0 102 202 120 338 l7 52 83 0 84 0 0 95 0 95
-88 0 -88 0 -12 58 c-25 121 -102 226 -199 272 -52 25 -176 37 -223 21z"/>
<path d="M13220 29400 c-18 -16 -28 -30 -21 -30 6 0 14 7 17 15 4 8 12 15 19
15 7 0 15 7 19 15 8 21 4 19 -34 -15z"/>
<path d="M19805 28494 c-199 -33 -348 -131 -414 -273 -85 -185 -45 -412 95
-541 109 -99 237 -142 424 -143 195 0 335 48 439 152 89 89 131 194 131 326 0
229 -135 396 -372 461 -54 15 -249 26 -303 18z m318 -347 c66 -30 97 -72 97
-132 0 -106 -111 -165 -311 -165 -131 0 -236 32 -278 86 -31 40 -29 123 4 162
52 62 130 82 305 78 111 -2 133 -6 183 -29z"/>
<path d="M28815 27470 c-3 -6 1 -7 9 -4 18 7 21 14 7 14 -6 0 -13 -4 -16 -10z"/>
<path d="M19802 27430 c-252 -34 -424 -191 -450 -408 -31 -265 124 -476 393
-533 86 -18 276 -16 355 5 190 48 317 162 362 324 60 217 -25 433 -212 539
-109 62 -299 93 -448 73z m250 -321 c109 -23 168 -77 168 -156 0 -58 -32 -100
-98 -131 -54 -26 -65 -27 -207 -27 -147 0 -151 1 -210 30 -75 38 -98 69 -97
131 1 76 51 124 156 150 65 16 219 17 288 3z"/>
<path d="M19370 26060 l0 -260 120 0 120 0 0 100 0 100 425 0 425 0 0 160 0
160 -545 0 -545 0 0 -260z"/>
<path d="M9251 24384 c-494 -1208 -770 -2459 -842 -3808 -15 -296 -6 -1175 15
-1431 50 -599 118 -1083 213 -1525 54 -251 65 -304 68 -320 1 -8 5 -22 8 -30
4 -8 20 -71 37 -140 95 -381 304 -1032 425 -1320 13 -30 35 -84 49 -120 39
-99 70 -172 86 -201 l15 -26 190 81 c122 52 190 87 191 96 0 8 -9 35 -19 60
-23 51 -25 56 -67 165 -18 44 -36 89 -40 100 -91 217 -275 771 -355 1070 -49
182 -99 386 -136 548 -49 219 -39 166 -114 582 -12 66 -56 373 -61 425 -3 30
-10 80 -15 110 -14 85 -47 472 -60 700 -14 244 -17 762 -7 1055 18 508 86
1107 184 1620 60 316 205 920 252 1054 5 14 16 51 25 81 33 116 177 549 211
640 21 52 77 195 125 317 l88 222 -71 30 c-39 16 -128 54 -198 84 l-126 55
-71 -174z"/>
<path d="M30451 24475 c-96 -41 -178 -78 -183 -83 -4 -4 25 -89 65 -188 41
-98 86 -215 101 -259 15 -44 34 -95 42 -112 28 -62 175 -508 228 -693 48 -165
86 -302 100 -360 8 -36 31 -130 50 -210 144 -601 245 -1294 282 -1945 15 -280
17 -984 3 -1210 -24 -374 -70 -818 -115 -1110 -20 -125 -102 -578 -114 -625
-5 -19 -23 -98 -41 -175 -38 -171 -105 -433 -120 -472 -5 -15 -16 -55 -24 -88
-7 -33 -30 -112 -50 -175 -20 -63 -52 -162 -70 -220 -69 -217 -196 -565 -297
-810 -21 -52 -40 -99 -41 -105 -2 -9 345 -164 369 -165 19 0 198 453 316 800
335 988 524 1944 598 3030 18 254 24 978 11 1245 -49 1016 -207 1921 -502
2881 -132 431 -393 1124 -423 1124 -6 0 -89 -34 -185 -75z"/>
<path d="M19826 20744 c-447 -99 -709 -580 -546 -1002 40 -103 100 -191 190
-276 133 -124 294 -193 475 -203 226 -13 432 70 586 235 79 85 123 157 162
269 42 122 50 289 18 413 -71 283 -283 498 -556 567 -54 14 -263 12 -329 -3z"/>
<path d="M28940 20677 l0 -83 -59 -11 c-126 -24 -233 -99 -282 -200 -20 -40
-24 -63 -24 -143 0 -86 3 -100 27 -142 53 -89 135 -132 356 -188 194 -48 222
-64 222 -123 0 -103 -304 -98 -487 9 -23 13 -44 21 -46 17 -14 -23 -97 -215
-97 -224 0 -28 208 -102 328 -117 l57 -7 3 -83 3 -82 94 0 95 0 0 84 0 84 68
17 c91 23 155 59 212 122 58 64 80 123 80 217 0 91 -30 158 -91 208 -67 54
-98 66 -279 113 -92 23 -180 49 -196 56 -33 16 -54 62 -38 87 50 79 219 84
396 12 40 -16 73 -28 74 -27 5 5 94 220 94 227 0 17 -142 68 -235 84 l-70 12
-3 82 -3 82 -99 0 -100 0 0 -83z"/>
<path d="M10835 20708 c-3 -7 -6 -46 -7 -87 l-3 -74 -67 -17 c-122 -32 -211
-100 -257 -199 -21 -46 -25 -70 -25 -136 1 -93 19 -138 81 -196 57 -55 129
-86 297 -128 182 -46 201 -53 221 -84 21 -32 6 -70 -37 -97 -66 -40 -257 -21
-371 37 -27 13 -53 21 -57 16 -16 -18 -91 -216 -86 -228 7 -18 128 -63 220
-80 43 -8 80 -15 82 -15 2 0 4 -38 4 -85 l0 -85 95 0 94 0 3 87 3 86 64 13
c177 36 294 155 308 313 12 127 -51 234 -171 290 -34 16 -133 47 -221 70 -88
23 -171 49 -184 59 -50 37 -43 93 14 122 42 20 193 18 275 -4 51 -13 139 -50
201 -83 9 -5 109 219 103 229 -11 17 -124 68 -194 87 -39 11 -98 23 -131 27
l-59 7 0 83 0 84 -95 0 c-68 0 -97 -4 -100 -12z"/>
<path d="M26800 20592 c-85 -22 -143 -58 -206 -124 -98 -103 -144 -240 -144
-428 0 -255 91 -430 268 -517 72 -36 82 -38 188 -42 134 -4 209 16 296 79 87
62 139 141 179 270 21 65 24 95 23 220 0 131 -3 153 -27 223 -15 43 -42 102
-61 131 -106 166 -312 241 -516 188z m201 -265 c50 -32 78 -98 87 -198 11
-125 -2 -241 -33 -304 -44 -92 -138 -120 -209 -64 -43 34 -67 93 -79 195 -26
226 43 394 163 394 22 0 51 -9 71 -23z"/>
<path d="M27919 20599 c-256 -37 -409 -248 -409 -564 0 -125 20 -220 64 -310
80 -162 231 -255 416 -255 292 0 480 225 480 572 0 159 -44 302 -122 399 -94
117 -269 182 -429 158z m133 -270 c13 -5 34 -25 46 -44 39 -56 52 -119 52
-245 0 -213 -53 -310 -169 -310 -81 0 -136 79 -152 216 -19 167 23 342 89 379
32 17 102 19 134 4z"/>
<path d="M25510 20470 l0 -120 210 -2 211 -3 -96 -102 -95 -101 0 -96 0 -96
78 0 c138 -1 203 -28 217 -91 7 -32 -16 -83 -45 -99 -75 -40 -237 -27 -357 29
-36 17 -67 30 -68 29 -2 -2 -28 -54 -59 -115 l-56 -113 59 -29 c128 -65 338
-96 491 -72 144 22 262 99 317 206 35 68 43 180 18 256 -25 75 -109 158 -187
184 -32 10 -58 22 -58 26 0 4 47 57 105 119 l105 111 0 99 0 100 -395 0 -395
0 0 -120z"/>
<path d="M11870 20539 c-167 -33 -307 -180 -355 -374 -23 -92 -24 -275 -2
-368 42 -173 153 -304 305 -359 81 -30 233 -30 317 1 218 78 337 296 321 586
-6 115 -26 195 -66 275 -94 186 -302 282 -520 239z m183 -274 c15 -9 39 -42
54 -73 27 -54 28 -64 28 -202 0 -170 -15 -231 -70 -279 -87 -76 -198 -29 -235
98 -18 61 -23 202 -11 281 21 132 84 206 167 197 22 -2 52 -12 67 -22z"/>
<path d="M12887 20521 c-161 -53 -270 -185 -313 -379 -26 -115 -16 -313 21
-414 52 -143 154 -250 280 -293 67 -23 196 -30 267 -16 245 51 393 291 374
606 -3 55 -12 125 -20 155 -40 145 -129 256 -255 318 -71 35 -81 37 -185 39
-87 2 -123 -1 -169 -16z m200 -246 c35 -10 81 -71 99 -130 32 -112 15 -341
-31 -411 -60 -92 -195 -82 -244 19 -60 124 -48 395 21 480 24 29 91 59 118 52
8 -2 25 -6 37 -10z"/>
<path d="M13961 20503 c-6 -12 -94 -213 -196 -447 l-185 -426 0 -100 0 -100
313 0 c173 0 375 -3 450 -7 l137 -6 0 211 0 212 -130 0 -129 0 -3 -82 -3 -83
-137 -3 c-76 -1 -138 0 -138 3 0 2 81 189 181 416 99 226 179 413 176 416 -3
2 -77 7 -165 10 -153 6 -160 5 -171 -14z"/>
<path d="M19028 20142 c-91 -137 -143 -339 -137 -532 2 -61 1 -65 -27 -82 -21
-13 -24 -18 -11 -18 32 0 -5 -28 -90 -66 -127 -58 -1044 -449 -2393 -1022
-262 -111 -1020 -433 -1315 -559 -148 -63 -317 -135 -374 -159 -57 -24 -108
-41 -114 -37 -5 3 -7 2 -4 -4 5 -8 -58 -38 -66 -31 -2 2 -10 -2 -18 -8 -28
-23 -259 -115 -270 -108 -7 4 -9 3 -6 -3 4 -6 -8 -16 -26 -23 -45 -18 -95 -39
-143 -62 -23 -10 -48 -16 -57 -13 -8 4 -18 2 -22 -4 -4 -7 1 -9 12 -6 18 6 -6
-7 -64 -33 -18 -7 -37 -10 -44 -6 -7 4 -9 3 -6 -3 8 -12 -20 -26 -34 -17 -5 3
-9 0 -9 -6 0 -6 -4 -9 -9 -6 -5 4 -11 1 -13 -4 -2 -6 -10 -12 -18 -13 -8 -2
-21 -6 -27 -10 -7 -5 -18 -5 -25 -1 -6 4 -8 3 -5 -2 3 -6 -22 -21 -56 -34 -34
-13 -66 -27 -72 -31 -11 -8 -570 -248 -2335 -1002 -1271 -543 -1564 -668
-1730 -737 -69 -28 -128 -55 -132 -58 -17 -16 290 -656 477 -997 296 -539 701
-1150 1059 -1595 72 -90 288 -353 296 -360 3 -3 35 -39 70 -80 36 -41 83 -95
106 -120 96 -106 113 -127 106 -135 -4 -5 -2 -5 5 -1 7 4 29 -14 53 -43 38
-45 49 -71 27 -63 -5 1 -6 -2 -2 -7 3 -6 12 -8 20 -5 9 4 36 -16 70 -50 56
-56 65 -73 19 -37 -13 10 -21 21 -19 25 3 3 2 4 -1 2 -8 -6 -44 26 -39 35 3 4
-2 10 -10 13 -23 9 -2 -26 34 -56 15 -14 34 -34 40 -46 6 -12 17 -22 24 -22 8
0 7 4 -3 11 -13 9 -13 10 0 6 8 -2 14 -11 12 -19 -3 -17 53 -70 64 -60 4 4 4
1 0 -6 -8 -13 47 -70 314 -321 419 -394 876 -760 1382 -1107 98 -67 175 -124
172 -127 -3 -3 3 -4 13 -4 10 1 17 -4 15 -11 -1 -6 1 -11 5 -11 23 4 35 -3 30
-16 -4 -8 -1 -17 5 -21 7 -4 8 -3 4 4 -13 22 16 12 78 -25 103 -62 155 -100
148 -108 -4 -5 -1 -5 5 -1 15 8 56 -17 46 -28 -4 -4 -1 -4 8 -1 8 3 25 -4 37
-15 12 -11 22 -18 22 -15 0 4 12 -2 28 -13 24 -17 117 -70 197 -112 17 -9 73
-40 125 -70 110 -61 510 -265 590 -300 30 -13 105 -47 165 -76 125 -58 638
-265 854 -343 1014 -369 2118 -601 3166 -666 1801 -112 3560 177 5211 857
l121 50 -17 36 c-10 20 -46 102 -80 182 -34 80 -66 149 -70 154 -6 5 -64 -14
-142 -47 -154 -64 -393 -156 -523 -199 -49 -16 -103 -36 -120 -43 -16 -7 -41
-16 -55 -20 -14 -3 -92 -28 -175 -54 -82 -27 -170 -54 -195 -61 -25 -7 -56
-16 -70 -21 -14 -5 -34 -11 -46 -13 -12 -2 -52 -14 -90 -25 -38 -11 -100 -28
-139 -37 -38 -9 -77 -18 -85 -20 -91 -24 -268 -67 -320 -78 -36 -8 -99 -22
-140 -31 -160 -35 -619 -114 -755 -130 -27 -3 -66 -8 -85 -10 -19 -3 -51 -7
-70 -10 -19 -2 -71 -9 -115 -15 -125 -17 -541 -49 -740 -57 -232 -10 -863 -10
-1070 0 -555 27 -1238 116 -1745 227 -52 12 -135 29 -185 40 -91 19 -380 92
-510 129 -183 52 -242 70 -270 79 -16 6 -136 45 -265 87 -129 42 -262 87 -295
99 -33 13 -103 39 -155 58 -52 20 -162 63 -243 97 -81 34 -158 63 -170 65 -12
1 -23 10 -25 18 -1 8 37 108 87 224 49 115 193 454 321 754 263 617 571 1342
760 1785 70 165 226 530 345 810 120 281 276 647 347 815 249 584 791 1856
873 2050 643 1515 1138 2667 1152 2679 3 3 3 -2 0 -11 -4 -10 -2 -18 4 -18 6
0 7 -4 4 -10 -3 -5 0 -11 7 -12 7 0 18 -2 23 -2 6 -1 15 -5 22 -9 6 -4 54 -16
105 -27 211 -45 411 -14 613 95 44 24 97 60 119 79 21 20 43 36 48 36 9 0 8 7
-18 90 -23 73 -21 72 -104 44 -398 -131 -801 -4 -1048 331 -136 185 -210 448
-184 658 5 37 8 67 7 67 -1 0 -14 -17 -27 -38z m-3075 -3891 c78 -31 204 -127
272 -209 166 -199 190 -444 63 -645 -46 -74 -150 -180 -223 -227 -55 -36 -152
-78 -158 -69 -2 2 -18 51 -36 109 -19 58 -36 111 -38 118 -3 6 2 12 11 12 23
0 105 44 138 73 51 46 96 116 108 167 15 62 2 125 -37 185 l-27 40 -12 -47
c-26 -104 -115 -210 -221 -264 -53 -26 -67 -29 -158 -29 -92 0 -104 2 -153 30
-71 39 -136 112 -162 183 -18 47 -21 73 -18 147 4 81 8 97 42 162 66 125 182
227 312 273 79 27 212 23 297 -9z m-770 -706 c176 -46 359 -201 448 -380 98
-197 69 -382 -82 -537 -93 -95 -171 -131 -296 -136 -154 -7 -284 47 -424 176
-254 235 -287 545 -80 751 122 121 278 167 434 126z m-712 -765 c128 -40 293
-173 379 -306 141 -215 114 -462 -69 -626 -210 -189 -506 -145 -741 110 -50
54 -85 104 -117 169 -43 87 -46 98 -51 193 -4 87 -2 108 18 163 51 141 156
248 291 297 74 27 205 27 290 0z m-734 -711 c23 -57 41 -108 40 -112 -1 -4
-33 -19 -71 -32 -158 -55 -313 -187 -332 -284 -5 -23 -1 -35 19 -55 15 -14 35
-26 45 -26 24 0 118 48 237 121 119 73 187 101 261 107 52 4 71 0 118 -21 173
-80 234 -272 144 -458 -20 -41 -43 -83 -51 -94 -15 -19 -13 -23 44 -80 l59
-61 -65 -64 -65 -64 -57 56 -58 56 -89 -59 c-75 -49 -193 -107 -201 -97 -1 2
-16 37 -33 78 -17 41 -38 91 -46 111 l-15 36 66 27 c173 71 313 222 274 295
-7 11 -22 28 -35 36 -31 21 -65 8 -196 -74 -171 -107 -231 -133 -315 -139 -87
-5 -129 7 -193 57 -88 70 -132 190 -111 305 10 55 42 134 80 193 13 21 10 26
-44 80 -31 31 -57 59 -57 63 0 3 28 34 63 68 l63 62 54 -55 c30 -30 57 -55 61
-55 3 0 24 14 45 31 86 68 276 164 309 155 5 -1 29 -49 52 -107z"/>
<path d="M15670 16019 c-32 -13 -78 -56 -96 -91 -57 -110 71 -232 183 -174 37
19 81 69 89 102 26 105 -79 201 -176 163z"/>
<path d="M14953 15260 c-18 -10 -39 -33 -48 -49 -41 -80 -2 -175 125 -302 151
-152 263 -184 345 -99 20 21 29 42 33 78 6 70 -31 137 -136 245 -132 134 -238
177 -319 127z"/>
<path d="M14221 14513 c-79 -41 -98 -123 -51 -218 35 -72 189 -224 263 -260
104 -50 202 -18 227 75 22 80 -29 171 -167 301 -110 103 -203 138 -272 102z"/>
<path d="M20780 19523 c-63 -108 -201 -246 -307 -308 -46 -26 -83 -49 -83 -51
0 -1 42 -99 94 -216 93 -213 237 -548 614 -1433 345 -810 1432 -3361 1717
-4030 1103 -2587 1552 -3643 1661 -3904 37 -90 73 -165 80 -168 6 -2 63 19
125 47 63 29 119 53 124 54 6 2 36 15 68 31 32 15 61 25 64 21 3 -3 -1 -6 -10
-6 -11 0 -14 -5 -11 -15 5 -11 2 -13 -10 -9 -11 4 -16 1 -15 -12 0 -11 3 -14
6 -6 2 6 8 10 13 7 5 -3 14 1 22 8 7 7 17 14 21 14 5 0 31 11 58 24 47 23 62
43 37 51 -8 3 -6 7 5 11 9 3 16 3 16 -1 -5 -29 19 -21 169 52 441 219 927 509
1356 810 231 162 226 159 411 300 241 184 326 256 318 268 -3 7 -1 8 5 4 21
-13 33 3 20 27 -10 20 -10 21 6 8 14 -12 16 -12 10 2 -7 20 21 51 37 41 7 -4
9 -3 6 3 -4 6 24 37 61 69 228 199 562 520 562 541 0 8 4 12 9 8 6 -3 6 8 0
27 -41 131 73 442 260 708 25 36 48 67 51 70 3 3 24 30 47 60 130 169 354 393
538 535 78 60 238 166 294 195 25 12 51 29 59 37 8 8 27 17 43 20 16 3 29 10
29 15 0 5 5 6 10 3 6 -3 10 -1 10 5 0 7 6 10 13 7 6 -2 24 2 38 9 15 7 29 10
33 7 3 -4 6 -1 6 5 0 7 5 11 11 10 29 -7 383 545 606 947 182 327 500 983 489
1010 -2 6 -82 44 -177 84 -229 97 -1548 661 -2254 964 -308 132 -607 260 -665
285 -58 24 -107 47 -110 51 -3 3 -14 8 -25 9 -11 2 -24 10 -28 18 -5 8 -12 12
-17 9 -5 -3 -35 5 -67 18 -106 44 -1562 663 -3328 1415 -297 126 -859 366
-1250 532 -390 166 -957 408 -1260 537 -302 129 -554 237 -560 239 -5 2 -30
-31 -55 -73z m3894 -3332 c88 -89 105 -110 90 -114 -11 -3 -176 -34 -369 -68
-192 -34 -352 -64 -354 -66 -3 -2 28 -37 69 -78 l74 -75 66 65 65 65 103 -103
102 -102 -65 -65 -65 -64 57 -58 58 -58 -88 -87 -87 -88 -58 58 -58 57 -69
-70 c-38 -39 -74 -70 -80 -70 -13 0 -205 192 -205 205 0 6 32 42 70 80 l70 70
-202 202 -203 203 70 70 70 69 385 64 c212 36 399 65 415 66 26 1 46 -15 139
-108z m467 -517 c108 -32 184 -86 256 -183 111 -147 113 -348 6 -530 -49 -83
-182 -216 -264 -264 -99 -58 -181 -80 -291 -75 -80 3 -103 8 -161 35 -206 98
-318 325 -262 533 56 212 270 427 481 485 68 18 170 18 235 -1z m824 -778
c141 -70 240 -198 265 -344 37 -209 -110 -465 -348 -608 -139 -84 -313 -98
-445 -36 -86 40 -190 142 -230 225 -95 197 -36 421 160 615 139 136 268 193
429 189 83 -3 99 -6 169 -41z m645 -681 c25 -9 71 -32 103 -52 l59 -35 59 58
59 58 65 -64 65 -64 -55 -56 c-30 -31 -55 -58 -55 -61 0 -3 24 -42 54 -87 47
-73 105 -197 95 -206 -11 -8 -220 -88 -223 -85 -2 2 -16 33 -31 68 -82 196
-242 324 -315 251 -39 -39 -32 -61 84 -255 100 -167 110 -189 114 -274 6 -97
-8 -139 -68 -204 -70 -76 -130 -102 -240 -101 -74 0 -93 4 -150 31 -36 18 -78
40 -93 50 l-28 18 -58 -62 -58 -62 -66 67 -67 67 57 57 57 57 -24 33 c-59 79
-110 165 -133 222 -44 108 -46 103 68 147 138 54 135 53 135 34 0 -27 51 -146
86 -202 68 -106 168 -193 223 -193 32 0 71 37 71 67 0 28 -35 99 -100 203
-134 213 -155 326 -87 443 43 72 124 130 207 148 48 11 136 3 190 -16z m-1482
-4572 c-12 -15 -22 -17 -13 -3 9 14 -8 13 -23 -2 -8 -8 -12 -9 -12 -1 0 13 17
21 42 20 13 -1 14 -4 6 -14z m-113 -43 c3 -5 1 -10 -4 -10 -6 0 -11 5 -11 10
0 6 2 10 4 10 3 0 8 -4 11 -10z"/>
<path d="M24970 15383 c-72 -36 -217 -181 -253 -253 -44 -88 -35 -161 24 -208
77 -62 187 -24 320 109 126 126 170 226 134 303 -37 78 -128 97 -225 49z"/>
<path d="M25763 14651 c-68 -23 -148 -85 -224 -173 -78 -91 -103 -144 -97
-210 9 -87 89 -142 174 -119 138 37 344 265 344 380 0 97 -96 157 -197 122z"/>
<path d="M19571 14497 c-32 -52 -69 -175 -82 -272 -48 -362 115 -609 389 -593
207 13 321 173 322 454 l0 60 63 -4 c34 -2 68 -5 75 -7 9 -3 12 -56 12 -220
l0 -215 123 0 122 0 -3 345 c-1 190 -4 345 -5 346 -10 5 -624 55 -629 52 -5
-2 -8 -92 -8 -198 0 -220 -9 -264 -62 -291 -83 -43 -152 35 -151 168 1 84 21
165 60 241 13 27 23 51 21 53 -3 2 -54 28 -116 58 l-111 55 -20 -32z"/>
<path d="M19945 13540 c-143 -16 -288 -86 -360 -174 -150 -186 -137 -469 29
-631 106 -102 238 -148 431 -148 78 0 144 5 188 16 179 44 319 167 361 317 64
228 -26 450 -223 554 -111 58 -273 83 -426 66z m285 -330 c123 -44 164 -154
87 -235 -45 -47 -106 -66 -223 -72 -224 -12 -354 47 -354 162 0 73 54 126 155
152 61 15 284 11 335 -7z"/>
<path d="M19931 12479 c-281 -43 -451 -224 -451 -479 1 -220 141 -394 370
-455 130 -35 319 -28 447 16 58 20 131 62 175 102 113 100 168 277 134 435
-39 186 -169 314 -368 366 -76 20 -228 27 -307 15z m238 -319 c110 -18 172
-63 185 -134 13 -69 -39 -136 -129 -167 -27 -9 -88 -14 -185 -14 -139 0 -147
1 -203 29 -65 31 -97 72 -97 123 0 87 62 143 180 163 67 11 177 11 249 0z"/>
<path d="M11547 12091 c3 -11 12 -22 20 -26 23 -8 22 -3 -3 23 -21 22 -22 22
-17 3z"/>
<path d="M19562 11372 c-34 -72 -65 -183 -77 -269 l-7 -53 -84 0 -84 0 0 -95
0 -95 88 0 89 0 12 -53 c28 -125 102 -228 199 -278 39 -20 62 -24 137 -24 107
0 150 18 213 91 50 56 73 113 123 313 21 84 45 164 54 177 32 49 114 21 132
-44 5 -15 8 -65 7 -112 0 -70 -6 -101 -33 -175 -18 -49 -34 -97 -37 -105 -3
-11 25 -27 111 -62 l116 -47 25 53 c27 60 64 196 64 238 l0 28 85 0 85 0 0 95
0 95 -84 0 -84 0 -16 70 c-30 136 -99 229 -206 278 -43 20 -71 26 -130 26 -90
0 -152 -24 -207 -81 -51 -54 -77 -117 -126 -307 -49 -187 -67 -221 -117 -221
-54 0 -74 38 -78 148 -4 112 15 202 64 305 20 41 34 75 32 76 -10 9 -214 96
-223 96 -7 0 -26 -31 -43 -68z"/>
<path d="M13882 10134 c10 -10 20 -16 22 -13 3 3 -5 11 -17 18 -21 13 -21 12
-5 -5z"/>
<path d="M14026 10032 c-2 -4 4 -8 14 -8 10 0 16 4 14 8 -3 4 -9 8 -14 8 -5 0
-11 -4 -14 -8z"/>
<path d="M24830 9509 c0 -14 20 -20 36 -11 14 8 12 10 -10 14 -14 3 -26 2 -26
-3z"/>
<path d="M24767 9474 c3 -7 -1 -14 -8 -14 -7 0 -10 -2 -7 -5 7 -7 38 5 38 15
0 4 -7 10 -14 13 -10 4 -13 1 -9 -9z"/>
<path d="M14338 25866 c-68 -25 -124 -64 -200 -145 -121 -126 -161 -232 -111
-298 79 -107 186 -88 340 60 92 89 136 151 154 217 11 40 10 51 -9 93 -17 38
-30 52 -64 67 -50 23 -61 23 -110 6z"/>
<path d="M15090 25119 c-56 -17 -135 -76 -209 -155 -123 -132 -154 -236 -90
-309 58 -66 142 -65 240 2 61 42 193 183 219 232 30 60 35 119 13 160 -34 65
-100 92 -173 70z"/>
<path d="M15823 24410 c-38 -23 -63 -67 -63 -111 0 -66 79 -157 152 -174 58
-15 130 31 147 93 19 65 -31 152 -110 193 -48 24 -85 24 -126 -1z"/>
<path d="M15504 24046 c-38 -38 -44 -77 -19 -125 19 -38 68 -78 104 -86 57
-12 131 49 131 109 0 39 -41 101 -80 121 -50 26 -97 20 -136 -19z"/>
<path d="M9697 13159 c7 -7 15 -10 18 -7 3 3 -2 9 -12 12 -14 6 -15 5 -6 -5z"/>
<path d="M17873 7325 c0 -8 4 -12 9 -9 4 3 8 9 8 15 0 5 -4 9 -8 9 -5 0 -9 -7
-9 -15z"/>
<path d="M33341 16754 c0 -11 3 -14 6 -6 3 7 2 16 -1 19 -3 4 -6 -2 -5 -13z"/>
</g>
</svg>
